<svg width="9" height="9" viewBox="0 0 9 9" fill="none" xmlns="http://www.w3.org/2000/svg">
<path d="M4.36216 0.422683C4.4238 0.232957 4.69221 0.232958 4.75386 0.422683L5.62139 3.09268C5.64896 3.17753 5.72803 3.23497 5.81724 3.23497H8.62464C8.82413 3.23497 8.90708 3.49025 8.74569 3.6075L6.47445 5.25765C6.40228 5.31009 6.37208 5.40304 6.39964 5.48789L7.26718 8.15788C7.32882 8.34761 7.11167 8.50538 6.95028 8.38812L4.67905 6.73797C4.60687 6.68553 4.50914 6.68553 4.43697 6.73797L2.16573 8.38812C2.00434 8.50538 1.78719 8.34761 1.84884 8.15788L2.71637 5.48789C2.74394 5.40304 2.71374 5.31009 2.64156 5.25765L0.370331 3.6075C0.20894 3.49025 0.291884 3.23497 0.491373 3.23497H3.29877C3.38799 3.23497 3.46705 3.17753 3.49462 3.09268L4.36216 0.422683Z" fill="#F1CC4A"/>
</svg>
